<?xml version="1.0" standalone="no"?>
<!DOCTYPE svg PUBLIC "-//W3C//DTD SVG 20010904//EN"
 "http://www.w3.org/TR/2001/REC-SVG-20010904/DTD/svg10.dtd">
<svg version="1.0" xmlns="http://www.w3.org/2000/svg"
 width="500.000000pt" height="500.000000pt" viewBox="0 0 500.000000 500.000000"
 preserveAspectRatio="xMidYMid meet">

<g transform="translate(0.000000,500.000000) scale(0.100000,-0.100000)"
fill="#000000" stroke="none">
<path d="M2215 4384 c-356 -54 -668 -187 -945 -402 -395 -307 -670 -777 -747
-1275 -21 -137 -23 -429 -4 -567 125 -906 854 -1621 1753 -1719 655 -72 1288
171 1718 659 249 282 397 580 470 940 128 643 -80 1333 -541 1791 -321 319
-701 510 -1140 574 -133 19 -438 19 -564 -1z m649 -133 c307 -62 608 -209 858
-420 512 -431 755 -1138 618 -1804 -117 -565 -505 -1062 -1025 -1312 -286
-137 -561 -194 -890 -182 -193 7 -343 33 -509 88 -949 316 -1484 1301 -1232
2271 93 355 319 711 599 945 261 217 564 361 877 417 132 24 141 24 375 21
179 -2 240 -6 329 -24z"/>
<path d="M2430 3344 c-59 -12 -103 -29 -225 -91 l-130 -65 -120 -9 c-223 -19
-362 -62 -419 -129 -24 -29 -26 -39 -26 -116 0 -76 2 -85 23 -98 55 -36 136
-36 164 0 10 14 14 12 27 -14 26 -50 82 -77 153 -73 30 1 83 49 101 91 l15 35
9 -32 c5 -21 16 -35 31 -38 12 -3 213 -2 446 2 454 9 428 5 447 58 6 17 8 14
16 -17 14 -54 67 -98 119 -98 53 0 104 25 136 66 22 27 29 30 44 21 13 -8 36
-8 86 1 123 21 143 30 159 67 19 47 17 95 -5 129 -15 23 -18 40 -14 76 4 32 1
49 -8 57 -8 6 -130 48 -272 93 l-259 81 -236 4 c-131 2 -248 2 -262 -1z m372
-26 c58 -8 84 -9 102 0 16 7 26 7 28 1 2 -5 108 -41 236 -78 237 -70 282 -91
282 -133 0 -20 -16 -24 -23 -5 -3 8 -12 5 -28 -10 -23 -22 -23 -23 -3 -23 25
0 73 -45 75 -69 3 -36 -4 -57 -24 -80 -31 -33 -115 -71 -159 -71 -36 0 -38 2
-38 32 0 17 -9 51 -20 74 -75 154 -298 111 -318 -62 -4 -34 -10 -47 -26 -54
-12 -4 -211 -9 -444 -11 l-422 -4 0 36 c0 108 -77 189 -180 189 -94 0 -163
-76 -161 -179 l0 -43 -50 6 c-95 13 -99 17 -99 91 0 87 18 129 68 154 71 36
184 61 327 73 139 11 141 11 230 58 166 88 280 118 455 119 63 1 150 -4 192
-11z m-886 -303 c10 -8 15 -15 11 -15 -5 0 -1 -10 7 -22 14 -20 14 -24 -5 -44
l-20 -21 26 -5 c19 -4 23 -2 15 7 -8 9 -8 15 0 20 27 16 24 -85 -3 -113 -12
-12 -20 -9 -53 20 -38 32 -38 32 -21 5 10 -16 17 -38 15 -50 -3 -19 -9 -22
-51 -21 -46 0 -78 16 -63 31 4 4 10 2 14 -4 4 -7 14 6 25 30 l17 42 -23 -28
c-34 -44 -69 -35 -81 20 -7 36 -5 48 17 88 14 25 20 43 14 39 -7 -3 -1 4 12
15 28 26 116 29 147 6z m1244 -7 c19 -13 35 -29 36 -36 1 -7 0 -8 -3 -2 -8 16
-23 12 -17 -5 9 -22 -13 -44 -52 -51 -51 -9 -34 -17 19 -9 33 5 44 11 40 21
-3 8 0 14 6 14 15 0 14 -72 -1 -105 -15 -33 -23 -32 -65 10 -19 19 -33 31 -30
27 2 -4 10 -22 17 -39 11 -24 19 -31 32 -27 10 3 18 1 18 -4 0 -14 -48 -32
-86 -32 -46 0 -54 22 -25 74 l23 41 -27 -32 c-29 -36 -69 -44 -79 -17 -10 27
-7 104 5 104 6 0 9 -6 6 -14 -4 -10 6 -16 35 -20 22 -4 43 -4 46 -1 3 3 -6 5
-19 6 l-24 0 23 9 c25 11 29 42 6 60 -12 11 -18 11 -30 -2 -13 -12 -14 -20 -5
-37 13 -23 0 -29 -17 -8 -18 22 -7 68 19 83 39 21 111 17 149 -8z m-1200 -23
c20 -24 6 -28 -15 -5 -10 11 -13 20 -8 20 6 0 16 -7 23 -15z m1090 -45 c0 -5
-4 -10 -10 -10 -5 0 -10 5 -10 10 0 6 5 10 10 10 6 0 10 -4 10 -10z m409 -51
c-25 -16 -32 -9 -13 12 12 13 20 16 22 9 3 -7 -2 -16 -9 -21z m-1529 -89 c0
-5 -4 -10 -10 -10 -5 0 -10 5 -10 10 0 6 5 10 10 10 6 0 10 -4 10 -10z m1090
0 c0 -5 -4 -10 -10 -10 -5 0 -10 5 -10 10 0 6 5 10 10 10 6 0 10 -4 10 -10z"/>
<path d="M2440 3286 c-103 -23 -212 -69 -295 -125 l-30 -21 34 0 c21 0 47 -10
67 -25 18 -14 41 -25 51 -24 15 0 14 2 -4 9 -26 11 -30 35 -8 44 8 3 180 10
382 16 259 7 385 15 426 25 32 8 61 15 63 15 2 0 4 5 4 10 0 6 -7 10 -15 10
-8 0 -15 -3 -15 -7 0 -5 -40 -7 -90 -5 -79 3 -91 6 -101 24 -10 19 -9 20 14
15 37 -10 161 -27 165 -23 4 5 -116 33 -218 52 -122 22 -349 27 -430 10z m158
-68 c-12 -9 -27 -18 -31 -18 -9 0 10 38 32 64 15 18 16 18 19 -5 3 -15 -4 -29
-20 -41z m-34 30 c-12 -41 -26 -56 -21 -23 5 28 4 28 -9 10 -8 -10 -12 -27 -8
-37 5 -17 -3 -18 -95 -18 -94 0 -101 1 -101 20 0 11 -6 20 -12 21 -7 0 -2 5
12 10 55 23 128 38 183 38 56 1 58 0 51 -21z m218 16 c21 -4 38 -13 41 -23 3
-9 8 -24 12 -33 6 -16 -1 -18 -84 -18 -90 0 -91 0 -91 24 0 14 -4 28 -10 31
-36 22 42 34 132 19z m97 -33 c29 -40 26 -46 -9 -21 -16 12 -30 28 -30 36 0
23 17 16 39 -15z m-237 -23 c-9 -9 -12 -7 -12 12 0 19 3 21 12 12 9 -9 9 -15
0 -24z m-348 -4 c9 -3 16 -10 16 -15 0 -10 -66 -29 -104 -29 -37 0 -25 14 29
34 22 8 41 15 42 15 1 1 8 -2 17 -5z"/>
<path d="M3058 3123 c23 -2 59 -2 80 0 20 2 1 4 -43 4 -44 0 -61 -2 -37 -4z"/>
<path d="M2775 3110 c-12 -5 32 -6 105 -3 69 3 127 7 129 9 9 8 -215 2 -234
-6z"/>
<path d="M3228 3113 c28 -2 76 -2 105 0 28 2 5 3 -53 3 -58 0 -81 -1 -52 -3z"/>
<path d="M1987 3090 c17 -4 71 -4 120 0 l88 7 -120 1 c-74 0 -108 -3 -88 -8z"/>
<path d="M1652 3068 c-29 -5 -50 -14 -47 -18 6 -10 57 -4 90 10 11 5 27 11 35
13 25 9 -20 6 -78 -5z"/>
<path d="M2473 3073 c9 -2 23 -2 30 0 6 3 -1 5 -18 5 -16 0 -22 -2 -12 -5z"/>
<path d="M1565 3020 c-4 -6 7 -10 24 -10 17 0 31 5 31 10 0 6 -11 10 -24 10
-14 0 -28 -4 -31 -10z"/>
<path d="M2450 2960 c-192 -7 -359 -24 -346 -37 2 -3 53 0 113 7 59 6 197 14
306 17 109 3 200 10 203 15 3 4 -10 7 -28 6 -18 -1 -130 -5 -248 -8z"/>
<path d="M1545 2930 c3 -5 12 -10 20 -10 8 0 17 -5 20 -10 4 -7 -3 -9 -22 -4
l-28 6 34 -26 c47 -35 64 -35 49 2 -7 15 -16 33 -21 40 -11 14 -61 17 -52 2z"/>
<path d="M2395 2909 c-347 -22 -344 -21 -265 -28 l65 -6 -65 -12 c-59 -11 -51
-12 95 -8 88 3 264 5 390 6 132 1 219 4 205 9 -14 4 -160 7 -325 5 l-300 -4
306 23 c169 13 313 26 320 29 25 10 -141 5 -426 -14z"/>
<path d="M1804 3012 c6 -10 72 -9 82 1 4 4 -14 7 -40 7 -26 0 -45 -4 -42 -8z"/>
<path d="M1837 2956 c7 -51 13 -59 13 -18 0 16 2 37 5 45 4 8 0 14 -9 14 -13
0 -14 -8 -9 -41z"/>
<path d="M1777 2975 c-18 -13 -18 -14 2 -34 12 -12 29 -21 39 -21 10 0 13 3 6
8 -6 4 -11 18 -10 31 1 29 -13 35 -37 16z"/>
<path d="M1870 2971 c-11 -21 -4 -51 12 -51 5 0 6 5 2 12 -5 7 -2 9 9 5 8 -3
21 1 28 9 10 12 8 17 -7 29 -25 19 -31 19 -44 -4z"/>
<path d="M1744 2922 c-10 -15 -5 -17 40 -18 41 -1 46 0 23 6 -16 5 -34 13 -41
19 -8 7 -15 5 -22 -7z"/>
<path d="M1744 2874 c3 -9 6 -20 6 -25 0 -14 37 -11 42 4 9 22 -3 37 -29 37
-19 0 -24 -4 -19 -16z"/>
<path d="M1886 2882 c-8 -14 31 -45 49 -39 19 8 20 47 1 47 -8 0 -18 -5 -22
-11 -5 -8 -9 -8 -14 1 -5 7 -10 8 -14 2z"/>
<path d="M1826 2834 c-12 -31 -6 -44 19 -44 18 0 25 5 25 20 0 11 -7 20 -16
20 -8 0 -12 5 -9 10 3 6 2 10 -3 10 -6 0 -13 -7 -16 -16z"/>
<path d="M3055 3000 c10 -11 18 -34 17 -50 0 -17 4 -28 9 -25 5 4 9 18 9 32 0
15 7 35 17 45 15 17 14 18 -27 18 -42 0 -43 0 -25 -20z m35 0 c0 -5 -4 -10
-10 -10 -5 0 -10 5 -10 10 0 6 5 10 10 10 6 0 10 -4 10 -10z"/>
<path d="M3106 2974 c-4 -9 -2 -22 4 -29 8 -9 7 -15 -2 -18 -8 -3 -9 -6 -2 -6
7 -1 22 7 35 18 20 16 21 21 10 35 -17 21 -37 20 -45 0z"/>
<path d="M2976 2868 c9 -32 11 -33 39 -20 38 18 32 42 -11 42 -32 0 -35 -2
-28 -22z m54 8 c0 -3 -4 -8 -10 -11 -5 -3 -10 -1 -10 4 0 6 5 11 10 11 6 0 10
-2 10 -4z"/>
<path d="M3130 2870 c0 -29 30 -38 46 -15 21 28 17 35 -16 35 -23 0 -30 -4
-30 -20z"/>
<path d="M3068 2831 c-26 -26 -22 -43 9 -39 31 4 38 17 21 40 -12 15 -14 15
-30 -1z"/>
<path d="M2287 2393 c-4 -3 -7 -15 -7 -25 0 -14 8 -18 40 -18 l40 0 0 -95 0
-95 30 0 30 0 0 95 0 95 35 0 c31 0 35 3 35 25 0 25 0 25 -98 25 -54 0 -102
-3 -105 -7z"/>
<path d="M2540 2280 l0 -120 30 0 c29 0 30 2 30 45 l0 45 50 0 c47 0 50 2 50
25 0 23 -3 25 -50 25 -47 0 -50 2 -50 25 0 24 3 25 55 25 52 0 55 1 55 25 0
25 -1 25 -85 25 l-85 0 0 -120z"/>
<path d="M1054 1899 c-27 -62 -50 -116 -52 -121 -2 -4 11 -8 28 -8 23 0 33 5
37 20 5 17 14 20 63 20 49 0 58 -3 63 -20 4 -15 14 -20 36 -20 17 0 31 3 30 8
0 4 -22 57 -48 117 -44 103 -49 110 -77 113 -30 3 -32 1 -80 -109z m90 17 c3
-13 9 -31 12 -40 5 -13 -1 -16 -26 -16 -25 0 -31 3 -26 16 3 9 9 27 12 40 3
13 10 24 14 24 4 0 11 -11 14 -24z"/>
<path d="M1310 1919 c0 -87 1 -92 29 -120 23 -22 39 -29 70 -29 90 0 115 34
116 153 l0 82 -27 3 -28 3 0 -73 c0 -82 -16 -118 -54 -118 -38 0 -46 19 -46
107 l0 83 -30 0 -30 0 0 -91z"/>
<path d="M1570 1985 c0 -22 4 -25 35 -25 l35 0 0 -95 0 -95 30 0 30 0 0 95 0
95 35 0 c31 0 35 3 35 25 l0 25 -100 0 -100 0 0 -25z"/>
<path d="M1874 1994 c-58 -28 -81 -103 -49 -164 39 -76 169 -80 219 -8 21 29
20 107 0 137 -33 47 -113 63 -170 35z m106 -54 c42 -42 15 -120 -42 -120 -60
0 -89 71 -46 117 26 28 61 30 88 3z"/>
<path d="M2120 1890 l0 -120 30 0 30 0 1 68 1 67 25 -57 c35 -78 54 -77 92 5
l29 62 1 -72 c1 -71 2 -73 26 -73 l25 0 0 120 0 120 -31 0 c-28 0 -33 -6 -64
-72 l-33 -72 -32 72 c-31 69 -34 72 -66 72 l-34 0 0 -120z"/>
<path d="M2504 1994 c-58 -28 -81 -103 -49 -164 39 -76 169 -80 219 -8 21 29
20 107 0 137 -33 47 -113 63 -170 35z m106 -54 c42 -42 15 -120 -42 -120 -60
0 -89 71 -46 117 26 28 61 30 88 3z"/>
<path d="M2730 1985 c0 -22 4 -25 35 -25 l35 0 0 -95 0 -95 30 0 30 0 0 95 0
95 35 0 c31 0 35 3 35 25 l0 25 -100 0 -100 0 0 -25z"/>
<path d="M3034 1994 c-58 -28 -81 -103 -49 -164 39 -76 169 -80 219 -8 21 29
20 107 0 137 -33 47 -113 63 -170 35z m106 -54 c42 -42 15 -120 -42 -120 -60
0 -89 71 -46 117 26 28 61 30 88 3z"/>
<path d="M3280 1890 l0 -120 30 0 c28 0 30 3 30 35 0 31 3 35 25 35 19 0 29
-9 42 -35 14 -30 22 -35 50 -35 l34 0 -23 41 c-16 29 -19 43 -11 46 23 8 36
70 21 100 -18 39 -53 53 -130 53 l-68 0 0 -120z m140 55 c18 -22 8 -47 -23
-58 -41 -13 -57 -3 -57 38 0 33 2 35 34 35 18 0 39 -7 46 -15z"/>
<path d="M3550 1890 l0 -120 95 0 c95 0 95 0 95 25 0 24 -2 25 -66 25 -62 0
-65 1 -62 23 3 19 10 22 61 25 49 3 57 6 57 22 0 18 -7 20 -60 20 -57 0 -60 1
-60 25 0 24 2 25 65 25 63 0 65 1 65 25 0 25 0 25 -95 25 l-95 0 0 -120z"/>
<path d="M3825 1985 c-14 -13 -25 -32 -25 -42 0 -29 27 -60 57 -68 38 -9 75
-34 68 -45 -9 -15 -52 -12 -85 5 -27 14 -30 14 -40 -4 -5 -11 -10 -22 -10 -26
0 -12 71 -35 110 -35 48 0 90 34 90 74 0 28 -37 62 -80 71 -16 3 -34 13 -40
21 -22 25 29 32 81 10 10 -5 19 1 27 18 10 22 8 25 -20 35 -54 19 -106 14
-133 -14z"/>
<path d="M1990 1445 l0 -55 34 0 c42 0 66 22 66 60 0 34 -23 50 -69 50 -31 0
-31 0 -31 -55z m64 32 c28 -20 18 -61 -16 -65 -27 -3 -28 -1 -28 37 0 44 12
51 44 28z"/>
<path d="M2120 1445 l0 -55 46 0 c27 0 43 4 39 10 -3 6 -19 10 -36 10 -42 0
-39 30 4 31 l32 1 -30 7 c-17 3 -30 13 -30 21 0 8 13 18 30 21 27 6 26 7 -12
8 l-43 1 0 -55z"/>
<path d="M2247 1493 c-16 -15 -6 -44 18 -53 36 -14 32 -34 -5 -26 -31 6 -42
-7 -14 -18 26 -10 51 -7 63 8 16 19 4 43 -25 50 -32 8 -31 26 1 26 14 0 25 5
25 10 0 11 -53 14 -63 3z"/>
<path d="M2350 1445 c0 -54 0 -55 29 -55 43 0 61 10 72 38 15 40 -12 72 -61
72 l-40 0 0 -55z m71 26 c20 -16 22 -23 13 -38 -6 -10 -23 -19 -38 -21 -24 -3
-26 0 -26 31 0 52 13 59 51 28z"/>
<path d="M2490 1445 l0 -55 40 0 c22 0 40 5 40 10 0 6 -13 10 -30 10 -39 0
-41 27 -2 33 l27 4 -27 2 c-21 1 -28 6 -28 20 0 15 8 21 33 24 28 3 26 4 -10
5 l-43 2 0 -55z"/>
<path d="M2648 1493 c7 -3 12 -24 12 -54 0 -27 5 -49 10 -49 6 0 10 25 10 55
0 51 -2 55 -22 54 -13 0 -17 -3 -10 -6z"/>
<path d="M2723 1484 c-8 -22 9 -48 36 -52 38 -6 23 -28 -16 -23 -7 1 -13 -3
-13 -9 0 -14 43 -13 58 2 7 7 12 26 12 43 0 17 -5 36 -12 43 -17 17 -58 15
-65 -4z m54 -10 c7 -18 -17 -38 -31 -24 -11 11 -1 40 14 40 6 0 13 -7 17 -16z"/>
<path d="M2833 1484 c-8 -22 9 -48 36 -52 38 -6 23 -28 -16 -23 -7 1 -13 -3
-13 -9 0 -14 43 -13 58 2 7 7 12 26 12 43 0 17 -5 36 -12 43 -17 17 -58 15
-65 -4z m54 -10 c7 -18 -17 -38 -31 -24 -11 11 -1 40 14 40 6 0 13 -7 17 -16z"/>
<path d="M2950 1471 c0 -22 5 -30 20 -33 31 -5 28 -22 -6 -29 -23 -5 -25 -7
-12 -13 40 -18 84 18 59 48 -8 9 -22 16 -33 16 -27 0 -17 23 13 31 21 6 21 7
-8 8 -30 1 -33 -2 -33 -28z"/>
</g>
</svg>
